# xmcd
#
# Track frame offsets:
#	150
#	24527
#	38287
#	60683
#	77107
#	107330
#	129155
#	145947
#	170814
#	195862
#	219416
#	246781
#	270774
#	293427
#	314078
#
# Disc length: 4453 seconds
#
# Revision: 2
# Processed by: cddbd v1.5.2PL0 Copyright (c) Steve Scherf et al.
# Submitted via: audiograbber 1.83.01
#
DISCID=c111630f
DTITLE=Listening Pearls Future Point Of Contact
DYEAR=2005
DGENRE=Lounge
TTITLE0=The Lushlife Project - Budapest Eskimos
TTITLE1=Sian feat Rachael Roberts - Beautiful Day
TTITLE2=Audio Lotion - Eclipse
TTITLE3=Khoiba - No Feedback
TTITLE4=Naomi - Avenue L'Amour
TTITLE5=Lemongrass - Lightning Fire (Solar Incense Mix)
TTITLE6=Llava - Desperately
TTITLE7=Metro Garage - Poppy Noodles
TTITLE8=Club Bangahs - We Cane Make It (... If We Try)
TTITLE9=Jean Bulyaba - Joy (Club Bangahs Remix)
TTITLE10=Gero - Tu Me Manques Beaucoup
TTITLE11=Bennson - Oceans And Whispers
TTITLE12=Espresso Del Lago - Eewayo
TTITLE13=Sandboy - The Hike
TTITLE14=Q-Point - Flow
EXTD=
EXTT0=
EXTT1=
EXTT2=
EXTT3=
EXTT4=
EXTT5=
EXTT6=
EXTT7=
EXTT8=
EXTT9=
EXTT10=
EXTT11=
EXTT12=
EXTT13=
EXTT14=
PLAYORDER=
